<svg width="22" height="22" viewBox="0 0 22 22" fill="none" xmlns="http://www.w3.org/2000/svg">
<path d="M10.9997 12.333C7.43967 12.333 0.333008 14.1197 0.333008 17.6663V20.6663C0.333008 21.2186 0.780723 21.6663 1.33301 21.6663H20.6663C21.2186 21.6663 21.6663 21.2186 21.6663 20.6663V17.6663C21.6663 14.1197 14.5597 12.333 10.9997 12.333ZM19.133 18.133C19.133 18.6853 18.6853 19.133 18.133 19.133H3.86634C3.31406 19.133 2.86634 18.6853 2.86634 18.133V17.6663C2.86634 16.813 7.03967 14.8663 10.9997 14.8663C14.9597 14.8663 19.133 16.813 19.133 17.6663V18.133ZM10.9997 10.9997C13.9463 10.9997 16.333 8.61301 16.333 5.66634C16.333 2.71967 13.9463 0.333008 10.9997 0.333008C8.05301 0.333008 5.66634 2.71967 5.66634 5.66634C5.66634 8.61301 8.05301 10.9997 10.9997 10.9997ZM10.9997 2.86634C12.5463 2.86634 13.7997 4.11967 13.7997 5.66634C13.7997 7.21301 12.5463 8.46634 10.9997 8.46634C9.45301 8.46634 8.19967 7.21301 8.19967 5.66634C8.19967 4.11967 9.45301 2.86634 10.9997 2.86634Z" fill="#323232"/>
</svg>
