<svg width="74" height="74" viewBox="0 0 74 74" fill="none" xmlns="http://www.w3.org/2000/svg">
<g filter="url(#filter0_d_583_4034)">
<rect x="15" y="10" width="44" height="44" rx="22" fill="#219653" shape-rendering="crispEdges"/>
<g clip-path="url(#clip0_583_4034)">
<path opacity="0.3" d="M33.5302 31H40.5502L43.3102 26H31.1602L33.5302 31Z" fill="white"/>
<path d="M32 38C30.9 38 30.01 38.9 30.01 40C30.01 41.1 30.9 42 32 42C33.1 42 34 41.1 34 40C34 38.9 33.1 38 32 38ZM42 38C40.9 38 40.01 38.9 40.01 40C40.01 41.1 40.9 42 42 42C43.1 42 44 41.1 44 40C44 38.9 43.1 38 42 38ZM40.55 33C41.3 33 41.96 32.59 42.3 31.97L45.88 25.48C46.25 24.82 45.77 24 45.01 24H30.21L29.27 22H26V24H28L31.6 31.59L30.25 34.03C29.52 35.37 30.48 37 32 37H44V35H32L33.1 33H40.55ZM31.16 26H43.31L40.55 31H33.53L31.16 26Z" fill="white"/>
</g>
</g>
<defs>
<filter id="filter0_d_583_4034" x="0" y="0" width="74" height="74" filterUnits="userSpaceOnUse" color-interpolation-filters="sRGB">
<feFlood flood-opacity="0" result="BackgroundImageFix"/>
<feColorMatrix in="SourceAlpha" type="matrix" values="0 0 0 0 0 0 0 0 0 0 0 0 0 0 0 0 0 0 127 0" result="hardAlpha"/>
<feOffset dy="5"/>
<feGaussianBlur stdDeviation="7.5"/>
<feComposite in2="hardAlpha" operator="out"/>
<feColorMatrix type="matrix" values="0 0 0 0 0.0166667 0 0 0 0 0.266667 0 0 0 0 0.123504 0 0 0 0.24 0"/>
<feBlend mode="normal" in2="BackgroundImageFix" result="effect1_dropShadow_583_4034"/>
<feBlend mode="normal" in="SourceGraphic" in2="effect1_dropShadow_583_4034" result="shape"/>
</filter>
<clipPath id="clip0_583_4034">
<rect width="24" height="24" fill="white" transform="translate(25 20)"/>
</clipPath>
</defs>
</svg>
