<svg width="30" height="26" viewBox="0 0 30 26" fill="none" xmlns="http://www.w3.org/2000/svg">
<path d="M28.333 10H22.4811C22.147 10 21.8349 9.83317 21.6494 9.55531L16.1063 1.25336C15.853 0.880026 15.4263 0.693359 14.9997 0.693359C14.573 0.693359 14.1463 0.880026 13.893 1.26669L8.35 9.5559C8.16442 9.83342 7.85258 10 7.51873 10H1.66634C0.933008 10 0.333008 10.6 0.333008 11.3334C0.333008 11.4534 0.346341 11.5734 0.386341 11.6934L3.77301 24.0534C4.07967 25.1734 5.10634 26 6.33301 26H23.6663C24.893 26 25.9197 25.1734 26.2397 24.0534L29.6056 11.7691C29.6194 11.7187 29.6292 11.6673 29.635 11.6153L29.6663 11.3334C29.6663 10.6 29.0663 10 28.333 10ZM14.1676 5.6481C14.5634 5.05437 15.4359 5.05437 15.8317 5.6481L17.6965 8.44533C18.1396 9.10988 17.6632 10 16.8645 10H13.1349C12.3362 10 11.8598 9.10988 12.3028 8.44533L14.1676 5.6481ZM23.8683 22.5991C23.749 23.0329 23.3547 23.3336 22.9048 23.3339L7.10933 23.3461C6.65876 23.3465 6.2636 23.0454 6.14427 22.611L3.76041 13.9315C3.58558 13.295 4.06458 12.6667 4.7247 12.6667H25.2875C25.9478 12.6667 26.4268 13.2952 26.2518 13.9318L23.8683 22.5991ZM14.9997 15.3334C13.533 15.3334 12.333 16.5334 12.333 18C12.333 19.4667 13.533 20.6667 14.9997 20.6667C16.4663 20.6667 17.6663 19.4667 17.6663 18C17.6663 16.5334 16.4663 15.3334 14.9997 15.3334Z" fill="#323232"/>
</svg>
